<?xml version="1.0" standalone="no"?><!DOCTYPE svg PUBLIC "-//W3C//DTD SVG 1.1//EN" "http://www.w3.org/Graphics/SVG/1.1/DTD/svg11.dtd"><svg t="1635905295521" class="icon" viewBox="0 0 1025 1024" version="1.1" xmlns="http://www.w3.org/2000/svg" p-id="5416" xmlns:xlink="http://www.w3.org/1999/xlink" width="200.1953125" height="200"><defs><style type="text/css"></style></defs><path d="M304.607147 576c-17.066667 0-34.133333-8.533333-46.933334-17.066667-12.8-12.8-17.066667-29.866667-17.066666-46.933333 0-17.066667 8.533333-34.133333 17.066666-46.933333 4.266667-4.266667 12.8-12.8 21.333334-12.8 17.066667-8.533333 34.133333-8.533333 46.933333 0 8.533333 4.266667 12.8 8.533333 21.333333 12.8 12.8 12.8 17.066667 29.866667 17.066667 46.933333 0 17.066667-8.533333 34.133333-17.066667 46.933333-8.533333 8.533333-25.6 17.066667-42.666666 17.066667zM513.673813 576c-8.533333 0-17.066667 0-25.6-4.266667-8.533333-4.266667-12.8-8.533333-21.333333-12.8-12.8-12.8-17.066667-29.866667-17.066667-46.933333 0-17.066667 8.533333-34.133333 17.066667-46.933333 25.6-25.6 68.266667-25.6 89.6 0 12.8 12.8 17.066667 29.866667 17.066667 46.933333 0 17.066667-8.533333 34.133333-17.066667 46.933333-8.533333 4.266667-12.8 12.8-21.333333 12.8s-12.8 4.266667-21.333334 4.266667zM722.74048 576c-8.533333 0-17.066667 0-25.6-4.266667-8.533333-4.266667-12.8-8.533333-21.333333-12.8-12.8-12.8-17.066667-29.866667-17.066667-46.933333 0-17.066667 8.533333-34.133333 17.066667-46.933333 25.6-25.6 68.266667-25.6 89.6 0 12.8 12.8 17.066667 29.866667 17.066666 46.933333 0 17.066667-8.533333 34.133333-17.066666 46.933333-8.533333 4.266667-12.8 12.8-21.333334 12.8s-12.8 4.266667-21.333333 4.266667z" p-id="5417" fill="#42D8BD"></path><path d="M44.34048 972.8c-12.8 0-25.6-4.266667-34.133333-17.066667-8.533333-12.8-12.8-29.866667-8.533334-42.666666l64-170.666667C23.007147 669.866667 1.673813 593.066667 1.673813 512 1.673813 260.266667 232.073813 51.2 513.673813 51.2S1025.673813 260.266667 1025.673813 512s-230.4 460.8-512 460.8c-81.066667 0-162.133333-17.066667-230.4-46.933333l-230.4 42.666666c-4.266667 4.266667-4.266667 4.266667-8.533333 4.266667z m243.2-132.266667c4.266667 0 12.8 0 17.066667 4.266667 59.733333 29.866667 132.266667 42.666667 204.8 42.666667 234.666667 0 426.666667-166.4 426.666666-375.466667s-192-375.466667-426.666666-375.466667S87.007147 307.2 87.007147 512c0 72.533333 21.333333 136.533333 64 200.533333 8.533333 12.8 8.533333 25.6 4.266666 38.4l-46.933333 123.733334 170.666667-34.133334h8.533333z" p-id="5418" fill="#42D8BD"></path></svg>