<?xml version="1.0" standalone="no"?><!DOCTYPE svg PUBLIC "-//W3C//DTD SVG 1.1//EN" "http://www.w3.org/Graphics/SVG/1.1/DTD/svg11.dtd"><svg t="1635749284852" class="icon" viewBox="0 0 1286 1024" version="1.1" xmlns="http://www.w3.org/2000/svg" p-id="10873" xmlns:xlink="http://www.w3.org/1999/xlink" width="251.171875" height="200"><defs><style type="text/css"></style></defs><path d="M1286.615967 736.942881V70.963621A70.963621 70.963621 0 0 0 1215.820905 0H70.963621A71.132181 71.132181 0 0 0 0 70.963621V782.959671a71.132181 71.132181 0 0 0 70.963621 70.963621h402.014815a77.874568 77.874568 0 0 1 33.711934 60.175803 73.660576 73.660576 0 0 1-25.958189 53.096296H241.546008a28.318025 28.318025 0 1 0 0 56.636049H1045.069959a28.318025 28.318025 0 0 0 0-56.636049H805.546667a73.660576 73.660576 0 0 1-25.95819-53.096296 78.211687 78.211687 0 0 1 33.711935-60.175803h402.520493a70.963621 70.963621 0 0 0 70.795062-70.963621v-45.848231zM70.963621 42.477037h1144.857284a28.486584 28.486584 0 0 1 28.486585 28.486584v644.909301H42.645597V70.963621a28.486584 28.486584 0 0 1 28.318024-28.486584zM751.776132 967.363951H535.008395a104.844115 104.844115 0 0 0-4.045432-113.272099h224.690041a108.552428 108.552428 0 0 0-18.541564 60.175802 106.698272 106.698272 0 0 0 14.664692 53.096297z m464.044773-155.749136H70.963621a28.486584 28.486584 0 0 1-28.318024-28.486585V758.518519h1201.661893v24.441152a28.486584 28.486584 0 0 1-28.486585 28.655144z" p-id="10874" fill="#42D8BD"></path><path d="M622.490864 642.043786H140.241646a21.407078 21.407078 0 0 1-21.238518-21.238519V138.556049A21.407078 21.407078 0 0 1 140.241646 117.99177h482.249218a21.407078 21.407078 0 0 1 21.238519 21.238518v481.574979a21.407078 21.407078 0 0 1-21.238519 21.238519zM161.480165 599.398189h439.772181V159.794568H161.480165z" p-id="10875" fill="#42D8BD"></path><path d="M291.102551 521.186502a20.56428 20.56428 0 0 1-10.619259-2.865514 21.069959 21.069959 0 0 1-10.787819-18.373004v-241.04033a21.238519 21.238519 0 0 1 31.857778-18.541563l208.845432 120.688724a21.238519 21.238519 0 0 1 0 36.746008L301.721811 518.320988a19.721481 19.721481 0 0 1-10.61926 2.865514z m21.238519-225.532839v167.379753l144.961317-84.279836z" p-id="10876" fill="#42D8BD"></path><path d="M1132.720988 159.794568H749.921975a21.238519 21.238519 0 0 1 0-42.477037H1132.720988a21.238519 21.238519 0 0 1 0 42.477037zM1018.100412 255.367901H749.921975a21.238519 21.238519 0 1 1 0-42.477037H1018.100412a21.238519 21.238519 0 0 1 0 42.477037z" p-id="10877" fill="#42D8BD"></path><path d="M890.500741 451.234239h-140.578766a21.238519 21.238519 0 0 1-21.238518-21.407079v-101.135802a21.069959 21.069959 0 0 1 21.238518-21.238518h140.578766a21.238519 21.238519 0 0 1 21.407078 21.238518v101.135802a21.407078 21.407078 0 0 1-21.407078 21.407079z m-119.340247-42.645597h98.101728v-57.815967h-98.101728zM1132.720988 451.234239h-140.747325a21.407078 21.407078 0 0 1-21.238519-21.407079v-101.135802a21.238519 21.238519 0 0 1 21.238519-21.238518h140.747325a21.069959 21.069959 0 0 1 21.069959 21.238518v101.135802a21.238519 21.238519 0 0 1-21.069959 21.407079z m-119.508807-42.645597h98.270288v-57.815967h-98.270288zM890.500741 642.043786h-140.578766a21.238519 21.238519 0 0 1-21.238518-21.238519v-101.135802a21.069959 21.069959 0 0 1 21.238518-21.238518h140.578766a21.238519 21.238519 0 0 1 21.407078 21.238518v101.135802a21.407078 21.407078 0 0 1-21.407078 21.238519z m-119.340247-42.645597h98.101728v-57.815967h-98.101728zM1132.720988 642.043786h-140.747325a21.407078 21.407078 0 0 1-21.238519-21.238519v-101.135802a21.238519 21.238519 0 0 1 21.238519-21.238518h140.747325a21.069959 21.069959 0 0 1 21.069959 21.238518v101.135802a21.238519 21.238519 0 0 1-21.069959 21.238519z m-119.508807-42.645597h98.270288v-57.815967h-98.270288z" p-id="10878" fill="#42D8BD"></path></svg>