<?xml version="1.0" standalone="no"?><!DOCTYPE svg PUBLIC "-//W3C//DTD SVG 1.1//EN" "http://www.w3.org/Graphics/SVG/1.1/DTD/svg11.dtd"><svg t="1635837907611" class="icon" viewBox="0 0 1024 1024" version="1.1" xmlns="http://www.w3.org/2000/svg" p-id="6881" xmlns:xlink="http://www.w3.org/1999/xlink" width="200" height="200"><defs><style type="text/css"></style></defs><path d="M462.813 1024c-170.943 0-322.32-83.718-415.358-212.37l0.446-0.435c-7.097-9.321-9.777-20.526-1.979-29.219l259.432-251.554-247.94-303.405c-7.812-9.136-6.745-22.866 2.376-30.689l-0.132-0.161C153.425 76.731 299.154 0 462.813 0 745.686 0 975 229.23 975 512s-229.314 512-512.187 512z m0-980.438c-145.05 0-274.69 65.898-360.643 169.362l247.6 302.989a21.644 21.644 0 0 1 4.89 10.458c2.415 6.829 1.132 14.654-4.14 20.53L92.064 798.463c85.706 110.692 219.89 181.975 370.749 181.975 258.797 0 468.593-209.727 468.593-468.438S721.61 43.562 462.813 43.562z m-32.704 283.25c-36.114 0-65.39-29.262-65.39-65.359 0-36.097 29.276-65.359 65.39-65.359 36.115 0 65.391 29.262 65.391 65.359 0 36.097-29.276 65.359-65.391 65.359z" p-id="6882" fill="#1989fb"></path></svg>