<?xml version="1.0" standalone="no"?><!DOCTYPE svg PUBLIC "-//W3C//DTD SVG 1.1//EN" "http://www.w3.org/Graphics/SVG/1.1/DTD/svg11.dtd"><svg t="1635317444295" class="icon" viewBox="0 0 1024 1024" version="1.1" xmlns="http://www.w3.org/2000/svg" p-id="8703" xmlns:xlink="http://www.w3.org/1999/xlink" width="200" height="200"><defs><style type="text/css"></style></defs><path d="M512 0C794.784 0 1024 229.216 1024 512 1024 773.088 828.576 988.544 576 1020.032L576 640 752 640 768 512 576 512 576 448C576 412.64 604.64 384 640 384L768 384 768 256 640 256C533.952 256 448 341.952 448 448L448 512 352 512 352 640 448 640 448 892.992 448 1007.872 448 1020.032C195.424 988.544 0 773.088 0 512 0 229.216 229.216 0 512 0Z" p-id="8704" fill="#ffffff"></path></svg>