<?xml version="1.0" standalone="no"?><!DOCTYPE svg PUBLIC "-//W3C//DTD SVG 1.1//EN" "http://www.w3.org/Graphics/SVG/1.1/DTD/svg11.dtd"><svg t="1635905268546" class="icon" viewBox="0 0 1024 1024" version="1.1" xmlns="http://www.w3.org/2000/svg" p-id="4502" xmlns:xlink="http://www.w3.org/1999/xlink" width="200" height="200"><defs><style type="text/css"></style></defs><path d="M905.173333 816.554667a420.821333 420.821333 0 0 0-91.434666-134.528 426.453333 426.453333 0 0 0-135.594667-90.709334c-0.469333-0.256-0.938667-0.341333-1.365333-0.597333a277.888 277.888 0 0 0 116.650666-226.218667C793.429333 210.261333 667.477333 85.333333 512 85.333333S230.570667 210.261333 230.570667 364.501333a278.229333 278.229333 0 0 0 116.650666 226.346667l-1.365333 0.554667a422.741333 422.741333 0 0 0-135.594667 90.752 422.656 422.656 0 0 0-91.434666 134.485333A415.573333 415.573333 0 0 0 85.333333 972.117333a9.045333 9.045333 0 0 0 9.088 9.216h68.096c4.992 0 8.96-3.925333 9.045334-8.789333a334.293333 334.293333 0 0 1 99.626666-229.973333A339.584 339.584 0 0 1 512 643.626667c91.008 0 176.469333 35.157333 240.810667 98.986666a334.293333 334.293333 0 0 1 99.626666 229.973334 8.96 8.96 0 0 0 9.045334 8.746666h68.096c5.12 0 9.216-4.181333 9.088-9.216a416.64 416.64 0 0 0-33.493334-155.562666zM512 558.08c-52.053333 0-101.12-20.138667-137.984-56.746667a191.573333 191.573333 0 0 1-57.173333-136.832c0-51.669333 20.309333-100.266667 57.173333-136.874666A194.688 194.688 0 0 1 512 170.88c52.053333 0 101.12 20.138667 137.984 56.746667a191.573333 191.573333 0 0 1 57.173333 136.874666 191.573333 191.573333 0 0 1-57.173333 136.874667A194.688 194.688 0 0 1 512 558.08z" p-id="4503" fill="#42D8BD"></path></svg>