<?xml version="1.0" standalone="no"?><!DOCTYPE svg PUBLIC "-//W3C//DTD SVG 1.1//EN" "http://www.w3.org/Graphics/SVG/1.1/DTD/svg11.dtd"><svg t="1635318194524" class="icon" viewBox="0 0 1024 1024" version="1.1" xmlns="http://www.w3.org/2000/svg" p-id="9051" xmlns:xlink="http://www.w3.org/1999/xlink" width="200" height="200"><defs><style type="text/css"></style></defs><path d="M888.49891 373.859803c0 213.18538-118.510114 371.887892-292.842605 371.887892-58.557674 0-113.598244-31.707143-132.019803-67.713194-31.707143 124.931361-38.071084 148.878772-38.071084 148.878772-11.332093 41.642422-34.552957 83.34215-54.984289 115.774817-58.223053 41.141002-63.637366-22.551622-63.637366-22.551622-1.339508-38.182624-0.669242-84.012416 9.266038-124.874055 0 0 10.55131-43.821041 69.778226-295.0202-17.584494-34.610262-17.584494-86.132706-17.584494-86.132706 0-80.441077 46.612621-140.448776 104.500029-140.448776 49.402153 0 73.349565 37.400818 73.349565 81.891102 0 49.403177-31.818683 123.534548-47.951105 191.972243-13.397125 57.888432 28.916587 104.44477 85.351923 104.44477 103.104239 0 172.155918-131.908262 172.155918-287.930735 0-119.292943-80.383772-208.160947-225.801722-208.160947-164.396187 0-266.717597 122.809023-266.717597 259.684414 0 47.337121 14.066367 80.496335 35.948747 106.621343 9.937326 12.001335 11.332093 16.188704 7.758708 30.311353-2.735297 9.881045-8.372691 33.883715-11.219529 43.039235-3.517103 14.123672-14.85022 19.036565-26.795273 14.123672-75.528184-31.148417-110.862947-114.38005-110.862947-207.546963 0-153.8459 129.786948-338.728678 386.736065-338.728678C752.349043 63.376423 888.49891 213.649961 888.49891 373.859803L888.49891 373.859803z" p-id="9052" fill="#ffffff"></path></svg>