<?xml version="1.0" standalone="no"?><!DOCTYPE svg PUBLIC "-//W3C//DTD SVG 1.1//EN" "http://www.w3.org/Graphics/SVG/1.1/DTD/svg11.dtd"><svg t="1635329168754" class="icon" viewBox="0 0 1024 1024" version="1.1" xmlns="http://www.w3.org/2000/svg" p-id="13722" xmlns:xlink="http://www.w3.org/1999/xlink" width="200" height="200"><defs><style type="text/css"></style></defs><path d="M512 149.333333a181.333333 181.333333 0 0 1 181.333333 181.333334v117.333333a181.333333 181.333333 0 0 1-64.373333 138.666667 65.6 65.6 0 0 0 11.84 108.106666l184.32 96.693334a92.32 92.32 0 0 1 49.546667 81.866666 1.333333 1.333333 0 0 1-1.333334 1.333334H150.666667a1.333333 1.333333 0 0 1-1.333334-1.44 92.266667 92.266667 0 0 1 49.493334-81.866667l184.266666-96.8A65.6 65.6 0 0 0 394.933333 586.666667 181.013333 181.013333 0 0 1 330.666667 448V330.666667a181.333333 181.333333 0 0 1 181.333333-181.333334m0-64a245.333333 245.333333 0 0 0-245.333333 245.333334v117.333333a244.693333 244.693333 0 0 0 86.933333 187.306667 1.546667 1.546667 0 0 1 0 2.56l-184.533333 96.8a156.586667 156.586667 0 0 0-83.733334 138.666666A65.28 65.28 0 0 0 150.666667 938.666667h722.666666A65.28 65.28 0 0 0 938.666667 873.333333a156.426667 156.426667 0 0 0-83.786667-138.666666l-184.32-96.746667a1.546667 1.546667 0 0 1 0-2.56A244.746667 244.746667 0 0 0 757.333333 448V330.666667a245.333333 245.333333 0 0 0-245.333333-245.333334z" fill="#2c2c2c" p-id="13723"></path></svg>